# xmcd
#
# Track frame offsets:
#	150
#	20554
#	32922
#	42932
#	55610
#	69640
#	79111
#	94196
#	104095
#	115502
#	131630
#	147361
#
# Disc length: 2136 seconds
#
# Revision: 1
# Processed by: cddbd v1.5.1PL2 Copyright (c) Steve Scherf et al.
# Submitted via: EasyCDDAExtractor 6.5.7.1
#
DISCID=a508560c
DTITLE=Teixerinha - Gaúcho de Bagé
DYEAR=1900
DGENRE=Gaúchas
TTITLE0=Desafio
TTITLE1=Linda Fronteirista
TTITLE2=Santa Maria
TTITLE3=Ouro do mesmo quilate
TTITLE4=Amigos do dinheiro
TTITLE5=Gaúcho de Bagé
TTITLE6=Nossa Senhora de Fátima
TTITLE7=Espelho do Brasil
TTITLE8=Divulgando o Rio Grande
TTITLE9=Minha infância
TTITLE10=Ela tornou-se Freira
TTITLE11=Seu amor é meu remédio
EXTD=
EXTT0=
EXTT1=
EXTT2=
EXTT3=
EXTT4=
EXTT5=
EXTT6=
EXTT7=
EXTT8=
EXTT9=
EXTT10=
EXTT11=
PLAYORDER=
